<svg xmlns="http://www.w3.org/2000/svg" width="100" height="100" viewBox="0 0 100 100">
    <path fill="none" stroke="#cdd6f4" stroke-linecap="round" stroke-linejoin="round" stroke-width="5" d="M44.714 27.878v-2.974c0-7.56-7.295-7.56-7.295-7.56h-26.19c-8.729 0-8.729 9.047-8.729 9.047v48.21c0 7.436 7.773 8.056 7.773 8.056H40m54.627-37.656 1.939-7.332c1.833-8.827-7.31-9.543-7.31-9.543h-65.23s-4.886 1.207-6.747 5.588c-1.86 4.382-5.75 15.512-5.75 15.512" paint-order="fill markers stroke"/>
    <path fill="none" stroke="#f38ba8" stroke-linecap="round" stroke-linejoin="round" stroke-width="5" d="M70.768 92.399 82.67 64.614a1.478 1.478 0 0 1 2.73 0l11.902 27.785m-21.19-12.471h15.845m-43.933 12.47 17.323-40.407a2.16 2.16 0 0 1 3.79 0l3.526 7.96M55.795 74.28h9.287"/>
</svg>
