<svg xmlns="http://www.w3.org/2000/svg" width="100" height="100" viewBox="0 0 100 100">
    <path fill="none" stroke="#cdd6f4" stroke-linecap="round" stroke-linejoin="round" stroke-width="5" d="M44.714 27.878v-2.974c0-7.56-7.295-7.56-7.295-7.56h-26.19c-8.729 0-8.729 9.047-8.729 9.047v48.21c0 7.436 7.773 8.056 7.773 8.056H40m54.627-37.656 1.939-7.332c1.833-8.827-7.31-9.543-7.31-9.543h-65.23s-4.886 1.207-6.747 5.588c-1.86 4.382-5.75 15.512-5.75 15.512" paint-order="fill markers stroke"/>
    <path fill="none" stroke="#fab387" stroke-linecap="round" stroke-linejoin="round" stroke-width="5" d="m73.33 77.272 9.54-9.54M52.677 89.197a23.85 23.85 0 1 1 41.31 0"/>
</svg>
