<svg xmlns="http://www.w3.org/2000/svg" width="100" height="100" viewBox="0 0 100 100">
    <path fill="none" stroke="#cdd6f4" stroke-linecap="round" stroke-linejoin="round" stroke-width="5" d="M24.023 28.126H78.31s9.207.248 9.207 9.543V45M40 82.656H10.272S2.5 82.036 2.5 74.601V26.39s0-9.047 8.729-9.047h26.186s7.294 0 7.294 7.56v2.974" paint-order="fill markers stroke"/>
    <path fill="none" stroke="#cdd6f4" stroke-linecap="round" stroke-linejoin="round" stroke-width="5" d="M63.72 83.305c1.29 3.224 3.523 4.3 7.056 4.3h-.608c3.869 0 6.448-2.094 6.448-5.235 0-2.566-1.786-3.866-4.615-5.014l-4.245-1.724c-2.472-1.004-4.036-3.056-4.036-5.303 0-2.085 2.24-3.877 4.793-4.107l1.01-.08c3.284-.296 6.446 1.638 7.093 4.267"/>
    <path fill="none" stroke="#f38ba8" stroke-linecap="round" stroke-linejoin="round" stroke-width="5" d="M79.392 56.304v4.273m-26.022-3.13 1.18 38.934 31.855 1.18V55.087Z"/>
</svg>
