<svg xmlns="http://www.w3.org/2000/svg" width="100" height="100" viewBox="0 0 100 100">
    <path fill="none" stroke="#4c4f69" stroke-linecap="round" stroke-linejoin="round" stroke-width="5" d="M24.023 28.126H78.31s9.207.248 9.207 9.543V45M40 82.656H10.272S2.5 82.036 2.5 74.601V26.39s0-9.047 8.729-9.047h26.186s7.294 0 7.294 7.56v2.974" paint-order="fill markers stroke"/>
    <path fill="none" stroke="#d20f39" stroke-linecap="round" stroke-linejoin="round" stroke-width="5" d="M70.768 92.399 82.67 64.614a1.478 1.478 0 0 1 2.73 0l11.902 27.785m-21.19-12.471h15.845m-43.933 12.47 17.323-40.407a2.16 2.16 0 0 1 3.79 0l3.526 7.96M55.795 74.28h9.287"/>
</svg>
