<svg xmlns="http://www.w3.org/2000/svg" width="100" height="100" viewBox="-5 -5 110 110">
    <path fill="none" stroke="#ed8796" stroke-linecap="round" stroke-linejoin="round" stroke-width="5" d="M2.556 80.067a9.293 9.293 0 0 0 1.615 5.384c1.832 2.734 4.946 4.53 8.357 4.698h16.408C28.934 78.92 21.034 69 9.626 66.006c2.944-4.87 6.542-10.754 10.763-17.67C38.312 55.225 50.04 71.807 50.041 90.15h36.932c3.496-.024 6.752-1.76 8.696-4.516 1.944-2.756 2.323-6.246 1.012-9.319l-37.46-61.3c-1.858-3.185-5.394-5.163-9.233-5.163-3.839 0-7.375 1.978-9.233 5.163l-9.708 15.893C54.694 41.166 71.145 63.862 71.145 90.15"/>
</svg>
