<svg xmlns="http://www.w3.org/2000/svg" width="100" height="100" viewBox="-5 -5 110 110">
    <path fill="none" stroke="#eed49f" stroke-linecap="round" stroke-linejoin="round" stroke-width="5" d="M24.453 97.445h-7.3c-8.062 0-14.598-6.536-14.598-14.598V17.153c0-8.062 6.536-14.598 14.598-14.598h65.694c8.062 0 14.598 6.536 14.598 14.598v65.694c0 8.062-6.536 14.598-14.598 14.598h-7.323v0"/>
    <path fill="none" stroke="#cad3f5" stroke-linecap="square" stroke-linejoin="round" stroke-width="0.710455" d="M6.5 12.5 8 11 9.5 12.5 9.5 14.5 6.5 14.5z" transform="matrix(7.35908 0 0 6.73044 -8.873 .018)"/>
    <path fill="none" stroke="#cad3f5" stroke-linecap="round" stroke-linejoin="round" stroke-width="5" d="M35.401 12.321h10.891m7.268 7.3h11.039M35.4 26.92h10.891m7.268 7.3h11.039M35.4 41.517h10.891m7.268 7.3h11.039M35.4 56.117h10.891m7.268 7.3h11.039"/>
</svg>
